<svg id="Capa_1" enable-background="new 0 0 512 512" height="512" viewBox="0 0 512 512" width="512" xmlns="http://www.w3.org/2000/svg"><g><path d="m256 0-20.016 256 20.016 256c141.385 0 256-114.615 256-256s-114.615-256-256-256z" fill="#e50058"/><path d="m0 256c0 141.385 114.615 256 256 256v-512c-141.385 0-256 114.615-256 256z" fill="#ff5b5b"/><path d="m256 70.13-20.016 185.87 20.016 185.87c102.489 0 185.87-83.381 185.87-185.87s-83.381-185.87-185.87-185.87z" fill="#ebebf0"/><path d="m70.13 256c0 102.489 83.381 185.87 185.87 185.87v-371.74c-102.489 0-185.87 83.381-185.87 185.87z" fill="#fff5f5"/><path d="m256 115.13-20.016 140.87 20.016 140.87c77.676 0 140.87-63.194 140.87-140.87s-63.194-140.87-140.87-140.87z" fill="#0051bf"/><path d="m115.13 256c0 77.676 63.194 140.87 140.87 140.87v-281.74c-77.676 0-140.87 63.194-140.87 140.87z" fill="#5f69e3"/><path d="m358.461 224.573-70.799-10.288-31.662-64.155-20.016 97.446 20.016 64.155 63.324 33.292-12.093-70.513z" fill="#ebebf0"/><path d="m224.338 214.285-70.799 10.288 51.23 49.937-12.093 70.513 63.324-33.292v-161.601z" fill="#fff5f5"/></g></svg>